<?xml version="1.0" encoding="UTF-8" standalone="no"?>
<!DOCTYPE svg PUBLIC "-//W3C//DTD SVG 1.1//EN" "http://www.w3.org/Graphics/SVG/1.1/DTD/svg11.dtd">
<svg width="100%" height="100%" viewBox="0 0 400 400" version="1.1" xmlns="http://www.w3.org/2000/svg" xmlns:xlink="http://www.w3.org/1999/xlink" xml:space="preserve" xmlns:serif="http://www.serif.com/" style="fill-rule:evenodd;clip-rule:evenodd;stroke-linejoin:round;stroke-miterlimit:2;">
    <g transform="matrix(0.356506,0,0,0.356506,-0.458351,0.616898)">
        <path d="M583.017,723.985L583.017,682.549C595.048,675.129 603.146,661.946 603.146,646.754C603.146,614.763 567.475,591.109 533.729,613.344C531.253,614.969 529.093,617.148 527.471,619.632C510.924,645.072 520.112,670.908 539,682.549L539,723.985L583.017,723.985Z" style="fill:rgb(170,212,200);fill-rule:nonzero;"/>
        <path d="M374.203,856.383L747.796,856.383C772.337,856.383 792.866,839.534 798.646,816.799L323.354,816.799C329.146,839.534 349.705,856.383 374.203,856.383Z" style="fill:rgb(97,110,125);fill-rule:nonzero;"/>
        <path d="M321.659,803.809C321.659,808.296 322.295,812.632 323.354,816.799L798.646,816.799C799.705,812.632 800.34,808.296 800.34,803.809L800.34,795.451L321.659,795.451L321.659,803.809Z" style="fill:rgb(130,191,171);fill-rule:nonzero;"/>
        <path d="M657.233,501.944L464.082,501.944L464.082,427.516C464.082,400.194 477.844,374.521 500.909,359.869C573.376,313.843 649.408,360.087 657.233,426.936L657.233,501.944ZM583.017,682.549L583.017,723.985L539,723.985L539,682.549C520.112,670.908 510.924,645.072 527.471,619.632C529.093,617.148 531.253,614.969 533.729,613.344C567.475,591.109 603.146,614.763 603.146,646.754C603.146,661.946 595.048,675.129 583.017,682.549ZM733.623,438.251C733.623,314.001 601.652,219.958 470.583,288.994C419.563,315.864 388.395,369.635 388.395,427.302L388.395,501.944L354.491,501.944C336.354,501.944 321.659,516.635 321.659,534.773L321.659,795.451L800.34,795.451L800.34,534.767C800.34,516.635 785.646,501.944 767.508,501.944L733.623,501.944L732.527,501.944L732.527,438.251L733.623,438.251Z" style="fill:rgb(97,110,125);fill-rule:nonzero;"/>
    </g>
</svg>
